<svg width="73" height="73" viewBox="0 0 73 73" fill="none"
    xmlns="http://www.w3.org/2000/svg">
    <path d="M72.9565 36.4565C72.9565 56.5848 56.6283 72.913 36.5 72.913C16.3717 72.913 0.043457 56.5848 0.043457 36.4565C0.043457 16.3282 16.3717 0 36.5 0C56.6283 0 72.9565 16.3282 72.9565 36.4565Z" fill="#660066"/>
    <path d="M36.402 18.6821C48.1456 18.6821 56.5303 29.2243 53.9806 40.3549C53.9806 40.3794 53.9806 40.404 53.9561 40.4285C53.858 40.6736 53.9316 41.0169 53.6374 41.0904C53.3922 41.1395 53.2451 40.8453 53.0735 40.6736C49.8373 37.4374 46.601 34.2012 43.3648 30.9895C42.9235 30.5482 42.5067 30.1069 42.0164 29.7391C38.486 26.9197 33.3619 27.3365 30.3709 30.6463C27.3308 34.0051 27.4044 39.0801 30.567 42.3163C33.9258 45.7486 37.3582 49.1565 40.7415 52.5643C40.8641 52.6869 40.9867 52.8095 41.1093 52.9321C41.477 53.2753 41.3789 53.4469 40.9131 53.5695C39.0989 54.0108 37.2356 54.1824 35.3723 54.0353C26.1785 53.3488 19.1422 45.8957 18.9461 36.6774C18.7744 27.5817 25.5656 19.8343 34.6613 18.8046C35.3968 18.7311 36.0588 18.7066 36.402 18.6821Z" fill="white"/>
    <path d="M54.9612 50.333C54.8877 51.9021 53.9805 53.4466 52.1173 54.2312C50.2785 55.0402 48.4397 54.8196 46.9932 53.4221C44.1738 50.7253 41.4279 47.9794 38.7311 45.1845C36.9168 43.2967 37.0639 40.3301 38.9517 38.5159C40.7905 36.7262 43.7325 36.7016 45.5958 38.5159C48.3171 41.1882 50.9895 43.8851 53.6618 46.5819C54.5444 47.489 54.9612 48.6168 54.9612 50.333Z" fill="white"/>
</svg>
    