<svg width="127" height="35" viewBox="0 0 127 35" fill="none"
    xmlns="http://www.w3.org/2000/svg">
    <path d="M63.3615 11.515L65.6378 13.7912C67.6744 12.2937 69.9507 11.515 72.4366 11.515V16.0375C70.5796 16.0375 68.9323 16.7264 67.6445 18.0442C66.3266 19.3621 65.6378 20.9794 65.6378 22.8363V34.1876H61.1152V11.515H63.3615Z" fill="#660066"/>
    <path d="M96.098 27.6584L99.3326 30.8931C97.1163 33.1094 94.4207 34.2176 91.3059 34.2176C88.191 34.2176 85.4955 33.1394 83.2791 30.8931C81.0628 28.6767 79.9546 25.9812 79.9546 22.8663C79.9546 19.7514 81.0328 17.0559 83.2791 14.8395C85.4955 12.6232 88.191 11.515 91.3059 11.515C94.4207 11.515 97.1163 12.5932 99.3326 14.8395C102.178 17.7447 103.226 21.1891 102.448 25.1425H84.8665C85.2259 26.101 85.765 26.9695 86.5138 27.6883C87.8316 29.0062 89.4489 29.695 91.3059 29.695C93.1628 29.695 94.7801 28.9762 96.098 27.6584ZM86.4838 18.0442C85.765 18.823 85.2259 19.6316 84.8365 20.59H97.7153C97.3859 19.6316 96.8467 18.823 96.068 18.0442C94.7502 16.7264 93.1329 16.0375 91.2759 16.0375C89.419 16.0375 87.8017 16.7264 86.4838 18.0442Z" fill="#660066"/>
    <path d="M16.7885 34.1578C12.5355 33.9182 8.91145 32.241 5.85649 29.216C2.53197 25.8914 0.854734 21.8781 0.914636 17.2058C0.914636 12.5035 2.59187 8.49012 5.9164 5.19555C9.24092 1.90098 13.2543 0.193797 17.9266 0.253698C22.6288 0.253698 26.6422 1.93093 29.9368 5.25545C32.9618 8.28047 34.6091 11.9344 34.8787 16.1874C35.1183 20.4404 33.9801 24.2741 31.3744 27.5687L34.6989 30.8932L31.5242 34.1279L28.1697 30.7734C24.8152 33.2892 21.0115 34.4274 16.7885 34.1578ZM28.1697 24.2741C29.8469 21.8781 30.5658 19.1525 30.3561 16.1575C30.0865 13.1325 28.8586 10.5268 26.7321 8.40027C24.336 6.00422 21.3709 4.77624 17.9266 4.71634C14.4823 4.71634 11.5471 5.94432 9.09116 8.40027C6.6951 10.7963 5.46714 13.7614 5.46714 17.2058C5.46714 20.6501 6.6951 23.5852 9.09116 26.0412C11.2177 28.1677 13.7934 29.3957 16.8484 29.6353C19.7835 29.9048 22.509 29.186 24.965 27.5088L21.94 24.4838L25.1746 21.2491L28.1697 24.2741Z" fill="#660066"/>
    <path d="M120.058 27.6584L123.293 30.8931C121.077 33.1094 118.381 34.2176 115.266 34.2176C112.151 34.2176 109.456 33.1394 107.24 30.8931C105.023 28.6767 103.915 25.9812 103.915 22.8663C103.915 19.7514 104.993 17.0559 107.24 14.8395C109.456 12.6232 112.151 11.515 115.266 11.515C118.381 11.515 121.077 12.5932 123.293 14.8395C126.138 17.7447 127.187 21.1891 126.408 25.1425H108.827C109.186 26.101 109.725 26.9695 110.474 27.6883C111.792 29.0062 113.409 29.695 115.266 29.695C117.123 29.695 118.741 28.9762 120.058 27.6584ZM110.444 18.0442C109.725 18.823 109.186 19.6316 108.797 20.59H121.676C121.346 19.6316 120.807 18.823 120.028 18.0442C118.711 16.7264 117.093 16.0375 115.236 16.0375C113.379 16.0375 111.762 16.7264 110.444 18.0442Z" fill="#660066"/>
    <path d="M54.6459 23.1359V11.5151H59.1684V34.1877H56.8921L54.6159 31.9115C52.5793 33.409 50.303 34.1877 47.8171 34.1877C44.7022 34.1877 42.0067 33.1095 39.7903 30.8632C37.574 28.6469 36.4658 25.9513 36.4658 22.8364V11.4852H40.9884V22.8364C40.9884 24.6934 41.6772 26.3407 42.9951 27.6285C44.3129 28.9464 45.9302 29.6352 47.7872 29.6352C49.6441 29.6352 51.2015 29.0063 52.4894 27.7184C53.8971 26.4904 54.6159 24.933 54.6459 23.1359Z" fill="#660066"/>
    <path d="M78.3368 11.4255H73.8442V34.1879H78.3368V11.4255Z" fill="#660066"/>
</svg>
    