<svg width="213" height="195" viewBox="0 0 213 195" fill="none" xmlns="http://www.w3.org/2000/svg">
<path d="M7.00101 142.522L119.385 191.861C123.829 193.812 128.966 193.323 132.961 190.567L163.446 169.543C172.56 163.258 171.129 149.393 160.905 145.147C120.096 128.199 65.8312 106 62.5338 106H51.7574C49.6354 106 47.5498 106.479 45.6401 107.405C32.4911 113.776 9.46911 124.774 3.53377 127C-1.33069 128.824 -0.34103 133.845 1.58482 137.759C2.67961 139.984 4.73032 141.525 7.00101 142.522Z" fill="#E6E6E6"/>
<path d="M110.426 168.752L117.617 172.874V171.07L110.426 166.948V168.752Z" fill="#EFEDEB"/>
<path d="M186.702 4.89509L180.025 0.772908C179.768 0.772908 179.768 0.515272 179.511 0.515272C178.741 0.257636 177.714 0 176.429 0C174.632 0 172.834 0.515272 171.036 1.54582L121.983 29.8858C115.563 33.7503 110.426 43.5405 110.426 52.3001V178.284C110.426 184.21 112.994 187.817 115.82 189.105L123.267 193.485L126.863 181.633L168.211 157.673C174.889 153.809 180.025 144.019 180.025 135.259V26.7941L186.702 4.89509Z" fill="#211827"/>
<path d="M180.025 26.7941L186.189 6.4409C183.107 3.86454 179.511 1.80345 175.145 0C173.861 0.257636 172.577 0.772908 171.293 1.54582L122.24 29.8858C119.158 31.6892 116.333 35.0385 114.279 38.6454C122.24 42.7676 129.174 46.8898 144.584 48.6932C157.682 50.239 172.577 47.9203 180.282 44.3134V26.7941H180.025Z" fill="#47404C"/>
<path d="M121.983 31.4316C121.983 31.174 122.24 31.174 122.497 30.9163L131.743 25.7636C132.513 25.2483 133.54 25.2483 134.311 25.7636L134.824 26.0213C135.338 26.2789 135.595 27.0518 135.338 27.8247C135.338 28.0823 135.081 28.0823 134.824 28.34L125.579 33.4927C124.808 34.008 123.781 34.008 123.268 33.4927L122.754 33.2351C121.983 32.7198 121.727 31.9469 121.983 31.4316Z" fill="#C566BC"/>
<path d="M111.454 96.8712C111.454 97.1288 111.197 97.3864 111.197 97.3864V107.95C111.197 108.722 111.71 109.753 112.481 110.011L112.995 110.526C113.508 110.784 114.279 110.784 114.792 110.011C114.792 109.753 115.049 109.495 115.049 109.495V98.9323C115.049 98.1594 114.536 97.1288 113.765 96.8712L113.251 96.6135C112.738 96.0983 111.967 96.3559 111.454 96.8712Z" fill="#C566BC"/>
<path d="M111.197 73.9416C111.197 74.1992 110.94 74.4568 110.94 74.4568V85.0199C110.94 85.7928 111.454 86.8234 112.224 87.081L112.738 87.5963C113.251 87.8539 114.022 87.8539 114.535 87.081C114.535 86.8234 114.792 86.5657 114.792 86.5657V76.0026C114.792 75.2297 114.279 74.1992 113.508 73.9416L112.995 73.4263C112.481 73.1687 111.71 73.1687 111.197 73.9416Z" fill="#C566BC"/>
<path d="M126.092 194C121.727 194 117.617 190.393 117.617 182.406V56.4223C117.617 47.6627 122.754 37.8725 129.431 34.008L178.484 5.66799C180.282 4.63745 182.08 4.12218 183.877 4.12218C188.243 4.12218 192.352 7.72908 192.352 15.7158V141.7C192.352 150.459 187.216 160.25 180.539 164.114L131.486 192.454C129.688 193.485 127.89 194 126.092 194Z" fill="#E597E1"/>
<path d="M180.282 162.311L131.229 190.651C125.322 194 120.442 190.393 120.442 182.664V56.4223C120.442 48.4356 125.322 39.4183 131.229 36.069L180.282 7.72907C186.189 4.3798 191.068 7.9867 191.068 15.7158V141.7C190.812 149.687 186.189 158.704 180.282 162.311Z" fill="#211827"/>
<path d="M190.041 16.4887V143.246C190.041 149.687 186.189 157.416 181.052 160.25L176.429 162.826L166.413 168.752L155.627 174.935L137.906 185.24L131.742 188.847C130.458 189.62 129.431 189.878 128.404 189.878C125.322 189.878 123.01 187.044 123.01 182.149V55.1341C123.01 48.6932 126.863 40.9641 131.742 38.1301L135.852 36.0691L149.72 28.0823L156.654 23.9602L174.375 13.6547L177.714 11.8513L181.309 9.79018C184.905 7.72909 187.73 8.75964 189.271 11.8513C189.784 12.8818 190.041 14.6853 190.041 16.4887Z" fill="#C566BC"/>
<path d="M190.041 43.0252V143.246C190.041 149.687 186.189 157.416 181.052 160.25L176.429 162.826L166.413 168.752L155.627 174.935L137.906 185.24L131.742 188.847C130.458 189.62 129.431 189.878 128.404 189.878C125.322 189.878 123.01 187.044 123.01 182.149V159.477C136.108 113.102 165.643 71.6228 190.041 43.0252Z" fill="#C566BC"/>
<path d="M188.243 137.062L125.322 173.647V60.0292L188.243 23.4449V137.062Z" fill="#C566BC"/>
<path d="M125.322 59.5139L186.702 23.9601V135.259L125.322 170.813V59.5139Z" fill="#3A2E3B"/>
<path d="M186.702 47.1474C164.102 73.9415 138.163 111.556 125.322 152.778V170.813L186.702 135.259V47.1474Z" fill="#655F68"/>
<path d="M110.426 62.8632L117.617 66.9854V65.1819L110.426 61.0598V62.8632Z" fill="#C566BC"/>
<path d="M110.426 173.647L117.617 177.511V175.965L110.426 171.843V173.647Z" fill="#C566BC"/>
<path d="M112.738 125.211C112.738 125.469 112.481 125.469 112.481 125.726V156.9C112.481 157.673 112.995 158.446 113.508 158.704L113.765 158.961C114.279 159.219 115.049 158.961 115.306 158.446C115.563 158.446 115.563 158.446 115.563 158.189V127.015C115.563 126.242 115.049 125.469 114.536 125.211L114.279 124.954C113.765 124.438 112.995 124.696 112.738 125.211Z" fill="#312835"/>
<path d="M113.508 128.56C113.508 129.076 113.765 129.591 114.279 129.849C114.792 130.106 115.049 129.849 115.049 129.333C115.049 128.818 114.792 128.303 114.279 128.045C113.765 127.787 113.508 128.045 113.508 128.56Z" fill="#C566BC"/>
<path d="M112.738 95.583C111.711 96.0983 112.224 96.3559 112.224 96.6135L112.738 107.177C112.738 107.95 113.251 108.98 114.022 109.238L114.536 109.495C115.049 109.753 115.82 109.753 116.333 108.98C116.333 108.722 116.59 108.465 116.59 108.465V97.9017C116.59 97.1288 116.076 96.0983 115.306 95.8406L114.792 95.3254C114.022 94.8101 113.508 95.3254 112.738 95.583Z" fill="#C566BC"/>
<path d="M111.967 96.3559C111.967 96.6135 111.71 96.8712 111.71 96.8712V107.434C111.71 108.207 112.224 109.238 112.995 109.495L113.508 109.753C114.022 110.011 114.792 110.011 115.306 109.238C115.306 108.98 115.563 108.722 115.563 108.722V98.1594C115.563 97.3864 115.049 96.3559 114.279 96.0983L113.765 95.8406C113.251 95.583 112.481 95.583 111.967 96.3559Z" fill="#312835"/>
<path d="M112.738 72.6534C111.711 73.1687 112.224 73.4263 112.224 73.6839L112.738 84.247C112.738 85.0199 113.251 86.0504 114.022 86.3081L114.536 87.081C114.536 87.081 115.306 86.5657 115.563 86.5657C115.82 86.5657 115.82 86.3081 116.077 86.0505C116.077 85.7928 116.333 85.5352 116.333 85.5352V74.9721C116.333 74.1992 115.82 73.1686 115.049 72.911L114.536 72.1381C113.765 71.8805 113.508 72.1381 112.738 72.6534Z" fill="#C566BC"/>
<path d="M111.71 73.1686C111.71 73.4263 111.454 73.6839 111.454 73.6839V84.247C111.454 85.0199 111.967 86.0505 112.738 86.3081L113.251 86.5657C113.765 86.8234 114.536 86.8234 115.049 86.0505C115.049 85.7928 115.306 85.5352 115.306 85.5352V74.9721C115.306 74.1992 114.792 73.1686 114.022 72.911L113.508 72.6534C112.995 72.3957 112.224 72.6534 111.71 73.1686Z" fill="#312835"/>
<path d="M123.267 31.9469C123.267 30.6587 123.781 30.9163 123.781 30.9163L133.027 26.2789C133.797 25.7636 134.824 25.7636 135.338 26.2789L135.852 26.5365C136.365 26.7941 136.622 27.567 136.365 28.34C136.365 28.5976 136.108 28.5976 135.852 28.8552L126.606 34.0079C125.836 34.5232 124.808 34.5232 124.295 34.0079L123.781 33.7503C123.267 33.235 123.267 32.7198 123.267 31.9469Z" fill="#E597E1"/>
<path d="M123.524 30.9163C123.524 30.6587 123.781 30.6587 124.038 30.401L133.283 25.2483C134.054 24.733 135.081 24.733 135.595 25.2483L136.109 25.506C136.622 25.7636 136.879 26.5365 136.622 27.3094C136.622 27.567 136.365 27.567 136.109 27.8247L126.863 32.9774C126.092 33.4927 125.065 33.4927 124.552 32.9774L124.038 32.7198C123.267 32.2045 123.011 31.4316 123.524 30.9163Z" fill="#58525D"/>
<path d="M155.884 34.5232C154.857 34.008 154.343 32.2045 155.113 30.6587C155.884 29.1129 157.425 28.0823 158.452 28.5976C159.479 29.1129 159.993 30.9163 159.223 32.4621C158.452 34.008 156.911 34.7809 155.884 34.5232Z" fill="#3A2E3B"/>
<path d="M156.654 33.7503C157.425 33.7503 158.195 32.9774 158.709 31.9469C159.223 30.6587 158.966 29.3705 158.195 29.1129C157.938 29.1129 157.938 29.1129 157.682 29.1129C156.911 29.1129 156.141 29.8858 155.627 30.9163C155.37 31.4316 155.113 32.2045 155.37 32.7198C155.37 33.2351 155.627 33.7503 156.141 33.7503C156.397 33.7503 156.397 33.7503 156.654 33.7503Z" fill="#3A2E3B"/>
<path d="M153.572 173.389C153.059 173.389 152.545 173.131 152.031 172.616C151.775 172.359 151.518 171.586 151.518 170.813V165.66C151.518 163.857 152.545 161.795 153.829 161.023L163.845 155.097C164.359 154.839 164.616 154.839 165.129 154.839C166.157 154.839 167.184 155.612 167.184 157.416V162.568C167.184 163.341 166.927 164.372 166.67 165.145C166.157 165.918 165.643 166.691 164.873 167.206L154.6 173.131C154.6 173.131 154.086 173.389 153.572 173.389Z" fill="#E697E1"/>
<path d="M166.67 162.568C166.67 163.341 166.413 164.114 166.157 164.887C165.9 165.66 165.386 166.175 164.616 166.691L154.6 172.616C153.829 173.131 153.316 172.874 152.802 172.359C152.545 172.101 152.545 171.586 152.288 171.07V165.918C152.288 164.372 153.059 162.568 154.343 162.053L164.359 156.127C165.386 155.355 166.413 156.127 166.413 157.673L166.67 162.568Z" fill="#E697E1"/>
<path d="M166.413 157.158C166.413 156.127 165.9 155.612 165.386 155.355C165.643 155.612 165.9 156.127 165.9 156.643V161.795C165.9 162.568 165.643 163.341 165.386 164.114C165.129 164.887 164.616 165.402 163.845 165.918L153.829 171.843C153.572 172.101 153.059 172.101 152.802 172.101C153.059 172.616 153.829 172.616 154.343 172.101L164.359 166.175C164.873 165.918 165.386 165.145 165.9 164.372C166.157 163.599 166.413 162.826 166.413 162.053V157.158Z" fill="#E697E1"/>
<path d="M211.614 60.2868V93.2642L146.381 130.879V97.9017L211.614 60.2868Z" fill="white"/>
<path d="M211.614 93.2642L146.381 130.879V128.303L209.303 91.976L211.614 93.2642Z" fill="#4D7C83"/>
<path d="M145.354 132.94V97.3864L212.641 58.4834V94.0371L145.354 132.94ZM147.665 98.4169V128.818L210.587 92.4913V62.0903L147.665 98.4169Z" fill="#C566BC"/>
<path d="M166.413 111.041L163.331 112.845V108.207L159.736 112.587L158.195 110.268L161.791 105.888L158.195 105.631L159.736 101.251L163.331 101.766V97.1288L166.413 95.3253V99.9628L169.752 95.5829L171.293 97.9017L167.697 102.281L171.293 102.539L169.752 106.661L166.157 106.404L166.413 111.041Z" fill="#C566BC"/>
<path d="M181.309 102.539L178.227 104.343V99.7051L174.632 104.085L173.091 101.766L176.686 97.3864L173.091 97.1288L174.632 92.7489L178.227 93.2642V88.6268L181.309 86.8233V91.4608L184.648 87.081L186.189 89.3997L182.593 93.7795L186.189 94.0371L184.905 98.1593L181.309 97.9017V102.539Z" fill="#C566BC"/>
<path d="M196.461 93.7795L193.38 95.5829V90.9455L189.784 95.3253L188.243 93.0066L191.839 88.6268L188.243 88.3691L189.784 83.9893L193.38 84.5046V79.8671L196.461 78.0637V82.7011L199.8 78.3213L201.341 80.64L198.002 85.0198L201.598 85.2775L200.057 89.3997L196.461 89.142V93.7795Z" fill="#C566BC"/>
<path d="M140.217 94.2948V129.849L145.354 132.94V97.3864L140.217 94.2948Z" fill="#211827"/>
<path d="M207.505 55.3917L140.218 94.2948L145.354 97.3864L212.641 58.2257L207.505 55.3917Z" fill="#47404C"/>
<path d="M209.303 91.9761V62.8632L210.587 62.0903V92.4913L209.303 91.9761Z" fill="#274D6A"/>
</svg>
