<svg width="270" height="197" viewBox="0 0 270 197" fill="none" xmlns="http://www.w3.org/2000/svg">
<path d="M267 110.276L213.71 146L73 72.7956L128.685 40L267 110.276Z" fill="#E2E2E2" fill-opacity="0.89"/>
<path d="M266.919 90.0115V75.4114L237.526 53.7036L224.463 26.4246L193.534 8.55883V29.8825L142.05 0.298309V17.972L141.282 17.5878C140.513 17.2036 139.937 17.5878 139.937 18.3562V23.3509C139.937 24.1194 140.513 25.272 141.282 25.6562L157.227 34.8773C157.227 25.6562 163.758 22.0062 171.634 26.4246C179.511 30.843 186.042 42.3694 186.042 51.5904L233.3 78.6772C233.3 69.4562 239.832 65.8062 247.708 70.2246C255.776 74.8351 262.116 86.1693 262.116 95.3904L268.263 98.8483C269.032 99.2325 269.608 98.8483 269.608 98.0799V92.893C269.608 92.1246 269.032 90.972 268.263 90.5878L266.919 90.0115Z" fill="#F1C40F"/>
<path d="M97.2897 69.4562L114.003 59.8509L105.934 53.7036L93.0634 54.0878L97.2897 69.4562Z" fill="#34495E"/>
<path d="M173.171 113.256L189.884 103.651L182.008 97.5035L168.945 97.8878L173.171 113.256Z" fill="#34495E"/>
<path d="M103.629 63.693L114.195 57.7378L124.184 66.3825L131.292 85.4009L119.766 91.9325L103.629 63.693Z" fill="#19242E"/>
<path d="M178.934 107.877L189.5 101.73L199.49 110.567L206.79 129.393L195.263 136.117L178.934 107.877Z" fill="#19242E"/>
<path d="M142.05 0.298309L82.1133 34.8772L133.213 64.4614L193.342 29.8825L142.05 0.298309Z" fill="#AF4EAF"/>
<path d="M142.242 22.1983L103.821 44.2904L87.8764 35.0693L142.242 3.7562V22.1983Z" fill="#3E5160"/>
<path d="M142.242 3.7562L187.387 29.6904L171.442 39.1036L142.242 22.1983V3.7562Z" fill="#34495E"/>
<path d="M103.821 44.2904L142.242 22.1983L171.442 39.1035L133.021 61.1956L103.821 44.2904Z" fill="#2A4051"/>
<path d="M193.726 8.36671L133.213 43.1378L164.334 61.0035L224.655 26.2325L193.726 8.36671Z" fill="#C566BC"/>
<path d="M224.655 26.2325L164.334 61.0036L177.398 88.2825L237.526 53.7036L224.655 26.2325Z" fill="#AF5AAB"/>
<path d="M233.492 49.6693L225.616 32.7641C224.655 30.6509 222.158 29.8825 220.237 31.0351L169.906 60.043C168.177 61.0035 167.408 63.3088 168.369 65.0378L176.437 81.7509C177.398 83.672 179.895 84.4404 181.816 83.4799L231.955 54.6641C233.684 53.5114 234.261 51.3983 233.492 49.6693Z" fill="#34495E"/>
<path d="M266.919 75.2193L237.526 53.7036L177.398 88.2825L206.79 109.99L266.919 75.2193Z" fill="#C566BC"/>
<path d="M209.095 133.619L206.79 124.59L261.924 92.7009C261.732 90.7799 261.155 89.0509 260.579 87.1299L266.726 83.4799V89.8193L268.263 90.5878C269.032 91.1641 269.608 92.1246 269.608 93.0851V98.272C269.608 98.6562 269.416 99.0404 269.224 99.0404L209.095 133.619Z" fill="#19242E"/>
<path d="M269.608 97.3114V98.272C269.608 98.6562 269.416 99.0404 269.224 99.0404L209.095 133.619L208.711 132.275L269.608 97.3114Z" fill="#19242E"/>
<path d="M269.608 93.2772L207.942 128.817L207.366 126.511L268.84 90.972C269.416 91.5483 269.8 92.3167 269.8 92.893V93.2772H269.608Z" fill="#19242E"/>
<path d="M266.919 75.2193L206.79 109.99V124.59L266.919 90.0114V75.2193Z" fill="#AF5AAB"/>
<path d="M123.224 84.4404C123.224 91.7404 118.037 94.8141 111.698 91.1641C105.358 87.5141 100.171 78.4851 100.171 71.1851C100.171 63.8851 105.358 60.8115 111.698 64.4615C118.037 68.1115 123.224 77.1404 123.224 84.4404Z" fill="#34495E"/>
<path d="M116.884 86.7456C109.392 89.0509 100.748 74.2588 106.511 68.8799C114.003 66.5746 122.648 81.3667 116.884 86.7456Z" fill="#ECF0F1"/>
<path d="M111.697 80.7904C110.353 80.022 109.008 77.9088 109.008 76.372C109.008 74.8351 110.161 74.0667 111.697 74.8351C113.042 75.6036 114.387 77.7167 114.387 79.2536C114.387 80.9825 113.042 81.7509 111.697 80.7904Z" fill="#34495E"/>
<path d="M179.448 126.339C174.939 118.529 174.933 110.091 179.436 107.492C183.938 104.892 191.243 109.116 195.752 116.926C200.261 124.736 200.267 133.174 195.764 135.773C191.262 138.373 183.957 134.149 179.448 126.339Z" fill="#34495E"/>
<path d="M192.766 130.546C185.274 132.851 176.629 118.059 182.392 112.68C190.076 110.375 198.529 125.359 192.766 130.546Z" fill="#ECF0F1"/>
<path d="M187.579 124.59C186.234 123.822 184.89 121.709 184.89 120.172C184.89 118.443 186.042 117.867 187.579 118.635C188.924 119.404 190.269 121.517 190.269 123.054C190.269 124.782 189.116 125.551 187.579 124.59Z" fill="#34495E"/>
<path d="M206.79 124.59V109.99L177.398 88.2825L164.334 61.0036L133.213 43.1378V64.4615L82.1133 34.8772V52.5509L81.3449 52.1667C80.5765 51.7825 80.0002 52.1667 80.0002 52.9351V58.122C80.0002 58.8904 80.5765 60.043 81.3449 60.4272L97.2896 69.4562C97.2896 60.2351 103.821 56.5851 111.698 61.0036C119.574 65.422 126.105 76.9483 126.105 86.1693L173.171 113.256C173.171 104.035 179.703 100.385 187.579 104.804C195.648 109.414 201.987 120.748 201.987 129.969L208.134 133.427C208.903 133.811 209.479 133.427 209.479 132.659V127.472C209.479 126.704 208.903 125.551 208.134 125.167L206.79 124.59Z" fill="#C660C1"/>
<path d="M181.432 102.882C183.353 102.882 185.274 103.459 187.387 104.804L111.697 61.1957C114.003 62.3483 115.924 64.0772 117.845 66.1904L181.432 102.882Z" fill="#425D78"/>
<path d="M105.358 59.0825C107.279 59.0825 109.2 59.6588 111.313 61.0036L81.9211 44.0983V45.6351L105.358 59.0825Z" fill="#425D78"/>
<path d="M206.789 117.29V115.754L187.771 104.804C189.884 106.148 191.997 107.877 193.726 109.798L206.789 117.29Z" fill="#425D78"/>
<path d="M206.79 114.409V109.606L206.213 109.222L81.9212 37.7588V42.5615L206.79 114.409Z" fill="#425D78"/>
<path d="M98.4422 63.5009C98.6343 63.1167 99.0185 62.5404 99.2106 62.1562L82.1133 52.1667V52.3588L81.3448 52.1667C80.5764 51.7825 80.0001 52.1667 80.0001 52.9351L98.4422 63.5009Z" fill="#425D78"/>
<path d="M209.479 127.664C209.479 126.896 208.903 125.935 208.134 125.359L206.598 124.59V124.398L199.874 120.556C200.258 121.325 200.45 122.093 200.642 122.861L209.479 127.664Z" fill="#19242E"/>
<path d="M174.324 107.301C174.516 106.917 174.9 106.34 175.092 105.956L124.184 76.5641C124.569 77.3325 124.761 78.1009 124.953 78.8693L174.324 107.301Z" fill="#19242E"/>
<path d="M80.0001 57.9299C80.0001 58.8904 80.5764 59.8509 81.3448 60.2351L97.2895 69.4562C97.2895 68.8799 97.2895 68.4957 97.2895 67.9193L80.0001 57.9299Z" fill="#425D78"/>
<path d="M126.105 84.6325C126.105 85.2088 126.105 85.7851 126.105 86.1693L173.171 113.256C173.171 112.68 173.171 112.296 173.171 111.719L126.105 84.6325Z" fill="#19242E"/>
<path d="M201.987 128.432C201.987 129.009 201.987 129.585 201.987 129.969L208.134 133.427C208.903 133.811 209.479 133.427 209.479 132.659L201.987 128.432Z" fill="#19242E"/>
<path d="M171.826 110.375L138.208 90.972V48.1325L163.758 62.9246L175.092 88.2825V101.346L171.826 110.375ZM139.553 90.2035L170.866 108.261L173.747 100.193V87.8983L162.99 63.8851L139.553 50.2457V90.2035Z" fill="#19242E"/>
<path d="M140.705 69.4562L173.363 88.2825L162.99 64.6536L140.705 51.7825V69.4562Z" fill="#34495E"/>
<path d="M147.621 79.6378L140.705 75.6036V73.1062L147.621 77.1404V79.6378Z" fill="#ECF0F1"/>
<path d="M253.279 95.1983L262.116 90.0115C263.653 89.0509 264.998 86.7457 264.998 84.8246V81.943C264.998 80.022 263.653 79.2536 262.116 80.2141L253.279 85.4009C251.55 86.3615 250.398 88.6667 250.398 90.5878V93.4693C250.205 95.3904 251.55 96.1588 253.279 95.1983Z" fill="#34495E"/>
<path d="M226.384 110.567L247.324 98.4641C248.092 98.0799 248.861 96.9272 248.861 95.9667V89.6272C248.861 88.6667 248.284 88.2825 247.324 88.8588L226.384 100.961C225.616 101.346 224.847 102.498 224.847 103.459V109.798C224.847 110.759 225.616 111.143 226.384 110.567Z" fill="#34495E"/>
<path d="M247.324 96.9272V90.5878L226.384 102.69V109.03L247.324 96.9272Z" fill="#19242E"/>
<path d="M262.116 88.2816C262.885 87.8974 263.653 86.7447 263.653 85.7842V82.9026C263.653 81.9421 263.077 81.5579 262.116 82.1342L253.28 87.321C252.511 87.7053 251.743 88.8579 251.743 89.8184V92.5079C251.743 93.4684 252.319 93.8526 253.28 93.2763L262.116 88.2816Z" fill="#ECF0F1"/>
<path d="M220.429 114.025L211.592 119.211C209.863 120.172 208.711 119.404 208.711 117.482V114.601C208.711 112.68 210.055 110.375 211.592 109.414L220.429 104.227C222.158 103.267 223.311 104.035 223.311 105.956V108.838C223.311 110.759 221.966 113.064 220.429 114.025Z" fill="#34495E"/>
<path d="M210.055 116.714V113.832C210.055 112.872 210.632 111.719 211.592 111.335L220.429 106.148C221.197 105.764 221.966 106.148 221.966 106.917V109.798C221.966 110.759 221.39 111.911 220.429 112.296L211.592 117.482C210.824 118.059 210.055 117.675 210.055 116.714Z" fill="#ECF0F1"/>
<path d="M244.826 98.272L245.979 97.5035V91.1641L244.826 91.9325V98.272Z" fill="#34495E"/>
<path d="M242.522 99.616L243.675 99.0397V92.7002L242.522 93.2766V99.616Z" fill="#34495E"/>
<path d="M240.024 101.154L241.176 100.385V94.0457L240.024 94.8141V101.154Z" fill="#34495E"/>
<path d="M237.526 102.498L238.679 101.922V95.5825L237.526 96.1588V102.498Z" fill="#34495E"/>
<path d="M235.029 104.035L236.182 103.267V96.9272L235.029 97.6957V104.035Z" fill="#34495E"/>
<path d="M232.532 105.38L233.684 104.804V98.4641L232.532 99.0404V105.38Z" fill="#34495E"/>
<path d="M230.034 106.725L231.187 106.148V99.8088L230.034 100.385V106.725Z" fill="#34495E"/>
<path d="M227.537 108.261L228.69 107.493V101.154L227.537 101.922V108.261Z" fill="#34495E"/>
<path d="M247.708 112.872L232.34 121.709V113.832L247.516 104.996L247.708 112.872Z" fill="#ECF0F1"/>
<path d="M190.859 167.03L204.431 160.244L125.83 103.131L107.169 112.179L190.859 167.03Z" fill="#D9D9D9" fill-opacity="0.77"/>
<path d="M180.794 99.8512L185.77 102.339L194.931 117.833V126.202L182.038 140.679L167.336 140.452L156.931 127.446L150.371 123.714L133.52 84.9226V80.5119L136.8 82.4345V79.381L149.127 86.506C149.127 86.506 151.729 91.369 156.479 94.1964C161.342 97.0238 164.734 98.9464 164.734 98.9464L169.598 108.446V111.5L166.544 109.69L164.282 114.554L172.425 128.69L180.342 133.214L188.484 124.619V119.304L180.794 99.8512Z" fill="#1D2936"/>
<path d="M154.556 120.208L164.282 114.554L156.818 115.232L154.556 120.208Z" fill="#121A21"/>
<path d="M194.931 126.202V117.833L185.883 102.452L181.812 100.417L190.068 119.869V126.202L181.246 135.363L177.401 136.042L180.342 139.774L182.038 140.679L194.931 126.202Z" fill="#C566BC"/>
<path d="M185.883 102.452L176.157 107.994L172.086 105.958L179.776 99.1726L185.883 102.452Z" fill="#C566BC"/>
<path d="M174.8 107.315L172.086 105.958L179.776 99.1726L184.526 101.661L174.8 107.315Z" fill="#1D2936"/>
<path d="M182.83 100.982V99.625L185.092 100.982V97.7024L181.586 91.5952L178.984 90.5774L181.812 100.417L182.83 100.982Z" fill="#C566BC"/>
<path d="M181.812 100.417L178.985 90.5774L178.08 91.0298L180.455 98.8333L181.812 100.417Z" fill="#34495E"/>
<path d="M131.937 100.19C133.86 99.0595 136.574 99.1726 139.627 100.982C145.621 104.375 150.371 112.744 150.371 119.643C150.371 123.036 149.127 125.524 147.205 126.655L137.705 132.196L122.437 105.732L131.937 100.19Z" fill="#1C2833"/>
<path d="M134.538 106.185L130.467 101.887L137.365 99.9643V103.923L145.169 115.685L155.687 134.685L144.943 126.202L140.306 114.667L134.538 106.185Z" fill="#0F161C"/>
<path d="M138.103 131.951C142.322 129.515 142.324 121.62 138.108 114.318C133.892 107.016 127.054 103.071 122.835 105.507C118.616 107.943 118.614 115.837 122.83 123.14C127.046 130.442 133.884 134.387 138.103 131.951Z" fill="#34495E"/>
<path d="M135.33 127.107C128.318 129.256 120.288 115.345 125.717 110.369C132.615 108.22 140.645 122.131 135.33 127.107Z" fill="#ECF0F1"/>
<path d="M130.467 121.565C129.109 120.774 127.979 118.851 127.979 117.381C127.979 115.798 129.109 115.232 130.467 116.024C131.824 116.815 132.955 118.738 132.955 120.208C132.955 121.679 131.824 122.357 130.467 121.565Z" fill="#34495E"/>
<path d="M188.371 132.762C190.294 131.631 193.008 131.744 196.062 133.554C202.056 136.946 206.806 145.315 206.806 152.214C206.806 155.607 205.562 158.095 203.639 159.226L194.026 164.768L178.871 138.304L188.371 132.762Z" fill="#1C2833"/>
<path d="M194.252 127.107C200.133 127.673 203.526 135.929 203.3 138.077L193.574 143.619C192.669 139.887 187.014 132.536 184.526 132.649L194.252 127.107Z" fill="#AD57A9"/>
<path d="M194.52 164.563C198.739 162.127 198.742 154.233 194.526 146.93C190.309 139.628 183.471 135.683 179.252 138.119C175.033 140.555 175.031 148.45 179.247 155.752C183.463 163.054 190.301 166.999 194.52 164.563Z" fill="#34495E"/>
<path d="M191.764 159.679C184.752 161.827 176.723 147.917 182.151 142.94C189.163 140.792 197.193 154.702 191.764 159.679Z" fill="#ECF0F1"/>
<path d="M186.901 154.137C185.544 153.345 184.413 151.423 184.413 149.952C184.413 148.369 185.544 147.804 186.901 148.595C188.258 149.387 189.389 151.31 189.389 152.78C189.389 154.363 188.258 154.929 186.901 154.137Z" fill="#34495E"/>
<path d="M171.181 105.506L176.157 107.994L185.318 123.375V131.744L172.312 146.333L156.252 137.06L134.199 104.036L127.639 100.304L123.794 90.4643V86.0536L127.074 87.9762V85.0357L139.401 92.1607C139.401 92.1607 142.002 97.0238 146.752 99.8512C151.615 102.679 155.008 104.601 155.008 104.601L159.871 114.101V117.155L156.818 115.345L154.556 120.208L162.699 134.345L170.615 138.869L178.758 130.274V124.958L171.181 105.506Z" fill="#273747"/>
<path d="M123.794 86.0536L127.074 87.9762L136.8 82.3214L133.52 80.5119L123.794 86.0536Z" fill="#C566BC"/>
<path d="M159.985 117.042L169.598 111.5V108.446L164.735 98.9464C164.735 98.9464 161.342 97.0238 156.479 94.1964C151.615 91.369 149.127 86.506 149.127 86.506L136.8 79.381L135.217 91.369L153.651 106.976L159.985 117.042Z" fill="#4C6B8A"/>
<path d="M156.818 115.232L159.871 117.042V113.988L155.008 104.488C155.008 104.488 151.615 102.565 146.752 99.7381C141.889 96.9107 139.401 92.0476 139.401 92.0476L127.074 84.9226V87.8631L149.24 109.917L156.818 115.232Z" fill="#34495E"/>
<path d="M133.52 80.5119L123.794 86.0536L133.52 80.5119Z" fill="#FFE780"/>
<path d="M149.24 108.22L127.074 87.9762L123.794 86.0536V90.4643L127.639 100.19L134.199 104.036L149.24 111.161V108.22Z" fill="#C566BC"/>
<path d="M185.318 131.744V123.375L176.157 107.994L172.086 105.958L180.342 125.524V131.857L171.633 140.905L165.639 137.738L170.615 145.315L172.312 146.333L185.318 131.744Z" fill="#C566BC"/>
<path d="M122.324 88.994L123.794 89.7857V86.0536L122.324 85.1488V88.994Z" fill="#C0392B"/>
<path d="M132.05 79.6071L133.52 80.5119L123.794 86.0536L122.324 85.1488L132.05 79.6071Z" fill="#E74C3C"/>
<path d="M184.526 132.649C190.407 133.214 193.8 141.47 193.574 143.619L191.99 142.714C191.086 138.982 185.205 134.798 182.83 134.798L184.526 132.649Z" fill="#C566BC"/>
<path d="M130.467 101.887L115.086 103.357L125.943 97.3631L123.794 94.875L124.586 92.5L130.467 101.887Z" fill="#34495E"/>
<path d="M173.217 106.637L173.104 105.167L175.479 106.524V103.357L171.973 97.25L169.258 96.2321L172.086 105.958L173.217 106.637Z" fill="#C566BC"/>
<path d="M172.086 105.958L169.258 96.2321L168.467 96.5714L170.842 104.375L172.086 105.958Z" fill="#C566BC"/>
<path d="M136.8 79.381L127.074 84.9226L139.401 92.1607L149.127 86.506L136.8 79.381Z" fill="#5B81A6"/>
<path d="M164.734 98.9464L155.008 104.488L159.984 113.988L169.598 108.446L164.734 98.9464Z" fill="#425C78"/>
<path d="M159.985 113.988V117.042L169.598 111.5V108.446L159.985 113.988Z" fill="#2C3E50"/>
<path d="M178.985 90.5774L169.258 96.2321L171.973 97.25L181.586 91.5952L178.985 90.5774Z" fill="#AD57A9"/>
<path d="M181.677 91.6108L171.981 97.2091L175.487 103.281L185.183 97.6832L181.677 91.6108Z" fill="#34495E"/>
<path d="M181.081 93.518L173.835 97.7042L175.928 101.328L183.175 97.1414L181.081 93.518Z" fill="#ECF0F1"/>
<path d="M178.08 91.0298L168.467 96.5714L169.258 96.2321L178.985 90.5774L178.08 91.0298Z" fill="#34495E"/>
<path d="M185.092 100.982L175.479 106.524V103.357L185.092 97.7024V100.982Z" fill="#AD57A9"/>
<path d="M185.883 102.452L176.157 107.994L185.318 123.375L194.931 117.833L185.883 102.452Z" fill="#AD57A9"/>
<path d="M185.318 123.375V131.744L194.931 126.202V117.833L185.318 123.375Z" fill="#34495E"/>
<path d="M194.931 126.202L185.318 131.744L184.526 132.649L194.252 127.107L194.931 126.202Z" fill="#D35400"/>
<path d="M192.217 89.3333C192.443 89.2202 192.782 89.2202 193.121 89.4464C193.8 89.8988 194.365 90.8036 194.365 91.5952C194.365 92.0476 194.252 92.2738 194.026 92.3869L184.979 97.4762L183.169 94.4226L192.217 89.3333Z" fill="#34495E"/>
<path d="M194.252 90.8036C194.365 91.0298 194.365 91.2559 194.365 91.4821C194.365 91.9345 194.252 92.1607 194.026 92.2738L184.979 97.4762L184.413 96.4583L194.252 90.8036Z" fill="#1C2833"/>
<path d="M172.764 101.321C172.877 101.208 173.104 101.208 173.33 101.321C173.782 101.548 174.121 102.113 174.121 102.679C174.121 102.905 174.008 103.131 173.895 103.131L169.371 105.732L168.354 103.923L172.764 101.321Z" fill="#1C2833"/>
<path d="M169.598 102.339C169.824 102.226 170.163 102.226 170.502 102.452C171.181 102.905 171.746 103.81 171.746 104.601C171.746 105.054 171.633 105.28 171.407 105.393L164.056 109.577L162.246 106.524L169.598 102.339Z" fill="#34495E"/>
<path d="M171.633 103.923C171.746 104.149 171.746 104.375 171.746 104.601C171.746 105.054 171.633 105.28 171.407 105.393L164.056 109.577L163.491 108.56L171.633 103.923Z" fill="#1C2833"/>
<path d="M161.907 107.429C161.907 108.22 162.473 109.238 163.151 109.577C163.83 110.03 164.395 109.69 164.395 108.899C164.395 108.107 163.83 107.089 163.151 106.75C162.473 106.298 161.907 106.637 161.907 107.429Z" fill="#2C3E50"/>
<path d="M162.586 108.446C163.377 109.69 164.282 109.125 163.717 107.768C162.812 106.637 161.907 107.089 162.586 108.446Z" fill="#ECF0F1"/>
<path opacity="0.2" d="M5.05041 137.825L97.0761 190.299C112.792 199.292 132.088 199.204 147.716 190.211L169.195 177.813C171.378 176.591 171.378 173.448 169.195 172.138L54.1191 105.52C53.0714 104.909 51.8491 104.909 50.8013 105.52L5.05041 132.15C2.86764 133.459 2.86764 136.603 5.05041 137.825Z" fill="#424242"/>
<path d="M8.89207 129.53L19.8059 123.331L14.9165 116.958C14.9165 116.958 6.88392 124.728 7.14586 125.339C7.40779 125.951 8.89207 129.53 8.89207 129.53Z" fill="#2672AB"/>
<path d="M89.1308 175.718L105.633 166.114C105.633 166.114 94.3695 160.264 93.8456 160.264C93.3217 160.264 86.5115 164.717 86.5115 164.717L89.1308 175.718Z" fill="#001A46"/>
<path d="M114.451 181.83C114.451 184.798 113.403 186.894 111.744 187.854C111.657 187.854 106.506 190.91 106.506 190.91C104.76 191.87 105.895 189.688 103.275 188.203C98.0366 185.147 93.7583 177.813 93.7583 171.789C93.7583 168.82 90.9644 168.82 92.7106 167.773C92.7979 167.773 98.2985 164.717 98.2985 164.629C100.045 163.669 102.402 163.844 104.934 165.328C110.173 168.471 114.451 175.805 114.451 181.83Z" fill="#022652"/>
<path d="M108.863 184.973C108.863 190.997 104.585 193.442 99.3463 190.386C94.1076 187.33 89.8294 179.996 89.8294 173.972C89.8294 167.947 94.1076 165.502 99.3463 168.558C104.672 171.614 108.863 178.948 108.863 184.973Z" fill="#03336E"/>
<path d="M99.7829 168.296C97.2509 166.812 94.9808 166.637 93.2346 167.511C94.8062 167.074 96.8143 167.423 98.9098 168.646C104.148 171.702 108.427 179.036 108.427 185.06C108.427 188.203 107.292 190.386 105.458 191.259C107.815 190.648 109.3 188.291 109.3 184.711C109.387 178.686 105.109 171.352 99.7829 168.296Z" fill="#084C94"/>
<path opacity="0.5" d="M99.6955 171.265C95.6792 168.908 92.3614 170.828 92.3614 175.456C92.3614 180.083 95.6792 185.759 99.6955 188.116C103.712 190.473 107.03 188.553 107.03 183.925C107.03 179.21 103.712 173.535 99.6955 171.265ZM102.489 180.52L104.76 180.345C105.109 180.345 105.545 180.782 105.633 181.306C105.807 182.004 105.807 182.615 105.807 183.314C105.807 183.925 105.72 184.536 105.633 185.06C105.545 185.409 105.109 185.409 104.76 184.973L102.489 182.179C102.315 181.917 102.14 181.655 102.14 181.393C102.14 181.306 102.14 181.306 102.14 181.218C102.14 181.131 102.14 181.131 102.14 181.044C102.14 180.695 102.315 180.52 102.489 180.52ZM103.974 178.163L101.704 178.337C101.529 178.337 101.267 178.25 101.093 177.988C101.005 177.901 100.918 177.813 100.918 177.726C100.743 177.464 100.569 177.202 100.569 176.94V173.972C100.569 173.535 100.918 173.36 101.354 173.71C102.402 174.67 103.363 175.892 104.148 177.202C104.323 177.639 104.323 178.163 103.974 178.163ZM98.8224 173.011V175.98C98.8224 176.242 98.7351 176.416 98.4732 176.416C98.3859 176.416 98.2986 176.416 98.2986 176.416C98.1239 176.416 97.862 176.329 97.6874 176.067L95.4173 173.273C95.0681 172.837 94.9807 172.313 95.2427 172.138C96.0285 171.701 96.9889 171.614 98.0366 171.876C98.4732 171.963 98.8224 172.575 98.8224 173.011ZM94.6315 174.408L96.9016 177.202C97.0762 177.464 97.2508 177.726 97.2508 177.988C97.2508 178.075 97.2508 178.075 97.2508 178.163C97.2508 178.25 97.2508 178.25 97.2508 178.337C97.2508 178.599 97.1635 178.774 96.9016 178.774L94.6315 178.948C94.2823 178.948 93.8457 178.512 93.7584 177.988C93.5838 177.289 93.5838 176.678 93.5838 175.98C93.5838 175.369 93.6711 174.757 93.7584 174.234C93.8457 173.972 94.2823 174.059 94.6315 174.408ZM95.4173 181.131L97.6874 180.956C97.862 180.956 98.1239 181.044 98.2986 181.306C98.3859 181.393 98.4732 181.48 98.4732 181.568C98.6478 181.83 98.8224 182.091 98.8224 182.353V185.322C98.8224 185.759 98.4732 185.933 98.0366 185.584C96.9889 184.624 96.0285 183.401 95.2427 182.091C94.9807 181.655 95.0681 181.131 95.4173 181.131ZM100.481 186.282V183.314C100.481 183.052 100.569 182.877 100.831 182.877C100.918 182.877 101.005 182.877 101.005 182.877C101.18 182.877 101.442 182.965 101.616 183.227L103.886 186.02C104.236 186.457 104.323 186.981 104.061 187.156C103.275 187.592 102.315 187.679 101.267 187.417C100.918 187.33 100.481 186.719 100.481 186.282Z" fill="#022652"/>
<path d="M99.259 171.44C95.2427 169.082 91.9249 171.003 91.9249 175.63C91.9249 180.258 95.2427 185.933 99.259 188.291C103.275 190.648 106.593 188.727 106.593 184.1C106.593 179.385 103.275 173.71 99.259 171.44ZM102.053 180.695L104.323 180.52C104.672 180.52 105.109 180.956 105.196 181.48C105.371 182.179 105.371 182.79 105.371 183.488C105.371 184.187 105.283 184.711 105.196 185.235C105.109 185.584 104.672 185.584 104.323 185.147L102.053 182.353C101.878 182.091 101.704 181.83 101.704 181.568C101.704 181.48 101.704 181.48 101.704 181.393C101.704 181.306 101.704 181.306 101.704 181.218C101.704 180.869 101.791 180.695 102.053 180.695ZM103.45 178.337L101.18 178.512C101.005 178.512 100.743 178.424 100.569 178.163C100.481 178.075 100.394 177.988 100.394 177.901C100.219 177.639 100.045 177.377 100.045 177.115V174.146C100.045 173.71 100.394 173.535 100.831 173.884C101.878 174.845 102.839 176.067 103.625 177.377C103.886 177.813 103.799 178.337 103.45 178.337ZM98.3859 173.186V176.154C98.3859 176.416 98.2986 176.591 98.0367 176.591C97.9493 176.591 97.862 176.591 97.862 176.591C97.6874 176.591 97.4255 176.504 97.2509 176.242L94.9808 173.448C94.6315 173.011 94.5442 172.487 94.8062 172.313C95.5919 171.876 96.5524 171.789 97.6001 172.051C98.0367 172.138 98.3859 172.749 98.3859 173.186ZM94.1077 174.583L96.3778 177.377C96.5524 177.639 96.727 177.901 96.727 178.163C96.727 178.25 96.727 178.25 96.727 178.337C96.727 178.424 96.727 178.424 96.727 178.512C96.727 178.774 96.6397 178.948 96.3778 178.948L94.1077 179.123C93.7584 179.123 93.3219 178.686 93.2346 178.163C93.0599 177.464 93.0599 176.853 93.0599 176.154C93.0599 175.543 93.1472 174.932 93.2346 174.408C93.4092 174.146 93.8457 174.234 94.1077 174.583ZM94.9808 181.306L97.2509 181.131C97.4255 181.131 97.6874 181.218 97.862 181.48C97.9493 181.568 98.0367 181.655 98.0367 181.742C98.2113 182.004 98.3859 182.266 98.3859 182.528V185.497C98.3859 185.933 98.0367 186.108 97.6001 185.759C96.5524 184.798 95.5919 183.576 94.8062 182.266C94.5442 181.83 94.6315 181.306 94.9808 181.306ZM100.045 186.457V183.488C100.045 183.227 100.132 183.052 100.394 183.052C100.481 183.052 100.569 183.052 100.569 183.052C100.743 183.052 101.005 183.139 101.18 183.401L103.45 186.195C103.799 186.632 103.886 187.156 103.625 187.33C102.839 187.767 101.878 187.854 100.831 187.592C100.394 187.505 100.045 186.981 100.045 186.457Z" fill="#A8CFF0"/>
<path d="M34.3869 136.864C34.3869 139.833 33.3392 141.928 31.6803 142.889C31.5929 142.889 26.4416 145.945 26.4416 145.945C24.6954 146.905 25.8304 144.722 23.2111 143.238C17.9724 140.182 13.6942 132.848 13.6942 126.824C13.6942 123.855 10.9003 123.855 12.6465 122.807C12.7338 122.807 18.2344 119.752 18.2344 119.664C19.9806 118.704 22.338 118.878 24.87 120.363C30.1087 123.506 34.3869 130.84 34.3869 136.864Z" fill="#022652"/>
<path d="M26.0677 146.134C29.7726 143.968 29.7378 137.015 25.99 130.604C22.2421 124.194 16.2004 120.752 12.4954 122.918C8.79045 125.084 8.82524 132.037 12.5731 138.448C16.321 144.859 22.3627 148.3 26.0677 146.134Z" fill="#03336E"/>
<path d="M19.806 123.331C17.274 121.847 15.0039 121.672 13.2577 122.545C14.8293 122.109 16.8374 122.458 18.9329 123.681C24.1715 126.736 28.4498 134.071 28.4498 140.095C28.4498 143.238 27.3147 145.421 25.4812 146.294C27.8386 145.683 29.3229 143.325 29.3229 139.746C29.3229 133.721 25.0446 126.387 19.806 123.331Z" fill="#084C94"/>
<path opacity="0.5" d="M19.6314 126.213C15.6151 123.855 12.2973 125.776 12.2973 130.403C12.2973 135.031 15.6151 140.706 19.6314 143.064C23.6477 145.421 26.9655 143.5 26.9655 138.873C26.9655 134.245 23.6477 128.57 19.6314 126.213ZM22.4254 135.555L24.6954 135.38C25.0447 135.38 25.4812 135.817 25.5686 136.341C25.7432 137.039 25.7432 137.65 25.7432 138.349C25.7432 138.96 25.6559 139.571 25.5686 140.095C25.4812 140.444 25.0447 140.444 24.6954 140.008L22.4254 137.214C22.2507 136.952 22.0761 136.69 22.0761 136.428C22.0761 136.341 22.0761 136.341 22.0761 136.253C22.0761 136.166 22.0761 136.166 22.0761 136.079C22.0761 135.729 22.2507 135.555 22.4254 135.555ZM23.9097 133.197L21.6396 133.372C21.4649 133.372 21.203 133.285 21.0284 133.023C20.9411 132.935 20.8538 132.848 20.8538 132.761C20.6791 132.499 20.5045 132.237 20.5045 131.975V129.006C20.5045 128.57 20.8538 128.395 21.2903 128.745C22.3381 129.705 23.2985 130.927 24.0843 132.237C24.2589 132.674 24.2589 133.197 23.9097 133.197ZM18.8456 128.046V131.015C18.8456 131.277 18.7583 131.451 18.4964 131.451C18.4091 131.451 18.3218 131.451 18.3218 131.451C18.1471 131.451 17.8852 131.364 17.7106 131.102L15.4405 128.308C15.0913 127.871 15.0039 127.348 15.2659 127.173C16.0517 126.736 17.0121 126.649 18.0598 126.911C18.4091 126.998 18.8456 127.522 18.8456 128.046ZM14.5674 129.443L16.8375 132.237C17.0121 132.499 17.1867 132.761 17.1867 133.023C17.1867 133.11 17.1867 133.11 17.1867 133.197C17.1867 133.285 17.1867 133.285 17.1867 133.372C17.1867 133.634 17.0994 133.809 16.8375 133.809L14.5674 133.983C14.2181 133.983 13.7816 133.547 13.6943 133.023C13.5197 132.324 13.5197 131.713 13.5197 131.015C13.5197 130.403 13.607 129.792 13.6943 129.268C13.7816 129.006 14.2181 129.006 14.5674 129.443ZM15.3532 136.166L17.6233 135.991C17.7979 135.991 18.0598 136.079 18.2344 136.341C18.3218 136.428 18.4091 136.515 18.4091 136.603C18.5837 136.864 18.7583 137.126 18.7583 137.388V140.357C18.7583 140.793 18.4091 140.968 17.9725 140.619C16.9248 139.658 15.9644 138.436 15.1786 137.126C15.0039 136.69 15.0039 136.166 15.3532 136.166ZM20.4172 141.317V138.349C20.4172 138.087 20.5045 137.912 20.7665 137.912C20.8538 137.912 20.9411 137.912 20.9411 137.912C21.1157 137.912 21.3776 137.999 21.5523 138.261L23.8223 141.055C24.1716 141.492 24.2589 142.016 23.997 142.19C23.2112 142.627 22.2507 142.714 21.203 142.452C20.8538 142.365 20.4172 141.754 20.4172 141.317Z" fill="#022652"/>
<path d="M19.1948 126.474C15.1785 124.117 11.8607 126.038 11.8607 130.665C11.8607 135.293 15.1785 140.968 19.1948 143.325C23.2111 145.683 26.5289 143.762 26.5289 139.135C26.5289 134.42 23.2111 128.745 19.1948 126.474ZM21.9888 135.729L24.2588 135.555C24.6081 135.555 25.0446 135.991 25.1319 136.515C25.3066 137.214 25.3066 137.825 25.3066 138.523C25.3066 139.222 25.2193 139.746 25.1319 140.27C25.0446 140.619 24.6081 140.619 24.2588 140.182L21.9888 137.388C21.8141 137.126 21.6395 136.864 21.6395 136.603C21.6395 136.515 21.6395 136.515 21.6395 136.428C21.6395 136.341 21.6395 136.341 21.6395 136.253C21.6395 135.904 21.8141 135.729 21.9888 135.729ZM23.473 133.372L21.203 133.547C21.0283 133.547 20.7664 133.459 20.5918 133.197C20.5045 133.11 20.4172 133.023 20.4172 132.935C20.2425 132.674 20.0679 132.412 20.0679 132.15V129.181C20.0679 128.745 20.4172 128.57 20.8537 128.919C21.9014 129.88 22.8619 131.102 23.6477 132.412C23.8223 132.848 23.735 133.372 23.473 133.372ZM18.3217 128.221V131.189C18.3217 131.451 18.2344 131.626 17.9725 131.626C17.8851 131.626 17.7978 131.626 17.7978 131.626C17.6232 131.626 17.3613 131.538 17.1867 131.277L14.9166 128.483C14.5673 128.046 14.48 127.522 14.7419 127.348C15.5277 126.911 16.4882 126.824 17.5359 127.086C17.9725 127.173 18.3217 127.784 18.3217 128.221ZM14.1308 129.618L16.4009 132.412C16.5755 132.674 16.7501 132.935 16.7501 133.197C16.7501 133.285 16.7501 133.285 16.7501 133.372C16.7501 133.459 16.7501 133.459 16.7501 133.547C16.7501 133.809 16.6628 133.983 16.4009 133.983L14.1308 134.245C13.7815 134.245 13.345 133.809 13.2577 133.285C13.083 132.586 13.083 131.975 13.083 131.277C13.083 130.665 13.1704 130.054 13.2577 129.53C13.345 129.181 13.7815 129.268 14.1308 129.618ZM14.9166 136.341L17.1867 136.166C17.3613 136.166 17.6232 136.253 17.7978 136.515C17.8851 136.603 17.9725 136.69 17.9725 136.777C18.1471 137.039 18.3217 137.301 18.3217 137.563V140.532C18.3217 140.968 17.9725 141.143 17.5359 140.793C16.4882 139.833 15.5277 138.611 14.7419 137.301C14.48 136.864 14.5673 136.341 14.9166 136.341ZM19.9806 141.492V138.523C19.9806 138.261 20.0679 138.087 20.3298 138.087C20.4172 138.087 20.5045 138.087 20.5045 138.087C20.6791 138.087 20.941 138.174 21.1156 138.436L23.3857 141.23C23.735 141.667 23.8223 142.19 23.5603 142.365C22.7745 142.802 21.8141 142.889 20.7664 142.627C20.4172 142.54 19.9806 142.016 19.9806 141.492Z" fill="#A8CFF0"/>
<path d="M130.604 113.902C130.604 113.902 132.524 108.488 134.445 110.671C136.366 112.854 135.493 120.974 135.493 120.974L130.604 113.902Z" fill="#001A46"/>
<path d="M168.496 149.699C165.441 144.024 133.659 115.91 116.808 102.726C99.9574 89.4546 76.9073 79.5885 71.494 77.755C66.0807 75.9214 51.1506 74.6991 43.5545 74.8737C34.8234 75.1356 9.06672 91.8993 5.6616 94.7806C5.6616 94.7806 0.859497 113.814 0.859497 115.91C0.859497 117.831 4.8758 126.387 8.8921 129.618C8.8921 129.268 8.8921 129.006 8.8921 128.657C8.8921 121.672 13.8688 118.791 19.9806 122.371C26.0923 125.863 31.0691 134.42 31.0691 141.492C31.0691 141.841 31.0691 142.278 30.9818 142.627C47.9201 152.318 71.4067 165.764 89.1308 175.805C88.8689 174.495 88.6943 173.273 88.6943 172.051C88.6943 165.066 93.671 162.185 99.7827 165.764C105.895 169.257 110.871 177.813 110.871 184.885C110.871 186.02 110.697 187.068 110.522 188.029C111.919 188.814 112.879 189.338 113.491 189.688C122.484 194.752 140.819 187.33 158.456 177.464C175.656 167.685 171.465 155.462 168.496 149.699Z" fill="#C566BC"/>
<path d="M96.3776 150.66C85.0272 139.135 83.9795 129.53 76.9946 118.878C70.0097 108.226 43.9038 97.138 38.6651 96.3522C33.863 95.6537 14.9166 96.4395 5.74891 94.6933C5.74891 94.6933 5.6616 94.6933 5.6616 94.7806C5.6616 94.7806 0.859497 113.814 0.859497 115.91C0.859497 117.831 4.8758 126.387 8.8921 129.618C8.8921 129.268 8.8921 129.006 8.8921 128.657C8.8921 121.672 13.8688 118.791 19.9806 122.371C26.0923 125.863 31.0691 134.42 31.0691 141.492C31.0691 141.841 31.0691 142.278 30.9818 142.627C47.9201 152.318 71.4067 165.764 89.1308 175.805C88.8689 174.495 88.6943 173.273 88.6943 172.051C88.6943 165.066 93.671 162.185 99.7828 165.764C105.895 169.257 110.871 177.813 110.871 184.885C110.871 186.021 110.697 187.068 110.522 188.029C111.919 188.814 112.879 189.338 113.491 189.688C116.11 191.172 119.515 191.608 123.444 191.172C123.881 185.933 124.142 178.424 121.785 175.718C118.031 171.178 104.759 159.216 96.3776 150.66Z" fill="#4B154C"/>
<path d="M37.7048 93.6456L64.5092 78.2788C64.5092 78.2788 52.5476 74.7864 40.8479 78.7154C29.2356 82.6444 18.7583 90.5897 19.2822 92.5978C19.806 94.6933 34.7362 94.344 37.7048 93.6456Z" fill="#03336E"/>
<path d="M44.8642 78.7154C47.6582 77.755 50.5395 77.2311 53.2461 76.8819C49.4917 76.8819 45.2135 77.3184 40.9353 78.7154C29.2356 82.6444 18.7583 90.5897 19.2821 92.5978C19.3695 93.0344 20.0679 93.2963 21.1157 93.5582C21.4649 90.9389 32.5534 82.819 44.8642 78.7154Z" fill="#001A46"/>
<path d="M81.5348 119.577C82.4952 115.735 108.601 101.678 111.133 101.591C113.665 101.504 139.335 121.41 138.461 126.213C137.588 131.015 108.601 149.699 98.9969 145.857C88.345 141.492 80.749 122.807 81.5348 119.577Z" fill="#001A46"/>
<path d="M82.5825 119.926C83.543 116.172 108.863 102.551 111.395 102.464C113.927 102.289 138.811 121.672 137.938 126.387C137.065 131.102 108.95 149.263 99.6082 145.421C89.3055 141.23 81.8841 123.069 82.5825 119.926Z" fill="#03336E"/>
<path d="M134.445 119.752C134.969 120.712 135.231 121.498 135.144 122.022C134.271 126.998 105.196 145.77 94.4568 142.889C95.8538 144.111 97.4254 145.159 99.0843 145.77C108.688 149.699 137.676 131.015 138.549 126.125C138.723 124.903 137.065 122.545 134.445 119.752Z" fill="#001A46"/>
<path d="M86.7735 146.643L18.409 106.829C18.409 106.829 33.6884 96.8761 45.3881 100.98C57.0878 105.083 74.6372 117.394 77.7804 124.728C80.9236 132.062 86.7735 146.643 86.7735 146.643Z" fill="#001A46"/>
<path d="M84.9399 145.159L20.2425 107.441C20.2425 107.441 34.7361 98.0111 45.7373 101.853C56.8258 105.694 73.3276 117.307 76.3834 124.292C79.352 131.364 84.9399 145.159 84.9399 145.159Z" fill="#084C94"/>
<path d="M134.445 172.051C134.445 172.051 137.938 178.424 139.771 178.512C141.605 178.599 146.319 176.94 155.662 171.44C161.686 167.947 164.306 165.502 164.917 163.669C165.528 161.748 164.044 155.025 164.044 155.025C164.044 155.025 160.464 159.216 150.86 164.717C143.176 168.995 134.445 172.051 134.445 172.051Z" fill="#03336E"/>
<path d="M164.044 155.025C164.044 155.025 163.869 155.2 163.432 155.636C163.869 157.644 164.48 161.661 164.044 163.058C163.432 164.979 160.813 167.336 154.789 170.828C145.359 176.329 140.644 177.988 138.898 177.901C138.723 177.901 138.549 177.813 138.374 177.726C138.898 178.163 139.335 178.512 139.771 178.512C141.605 178.599 146.319 176.94 155.662 171.44C161.686 167.947 164.306 165.502 164.917 163.669C165.528 161.748 164.044 155.025 164.044 155.025Z" fill="#022652"/>
<path d="M132 172.487L136.541 179.647C136.541 179.647 130.778 181.044 126.936 180.782C123.095 180.607 120.039 177.988 118.904 175.98C117.681 173.972 117.507 170.217 117.507 170.217C117.507 170.217 122.134 172.313 125.714 172.837C129.206 173.448 132 172.487 132 172.487Z" fill="white"/>
<path d="M132 172.487L136.541 179.647C136.541 179.647 129.905 178.774 124.841 176.154C119.69 173.535 117.507 170.217 117.507 170.217C117.507 170.217 122.134 172.313 125.714 172.837C129.206 173.448 132 172.487 132 172.487Z" fill="#A8CFF0"/>
<path d="M165.615 154.589L166.488 162.534C166.488 162.534 170.767 159.041 171.028 156.16C171.29 153.279 168.933 150.136 168.933 150.136C168.933 150.136 168.235 152.406 165.615 154.589Z" fill="white"/>
<path d="M165.615 154.589L166.488 162.534C166.488 162.534 168.584 157.906 168.846 155.025C169.108 152.144 169.02 150.136 169.02 150.136C169.02 150.136 168.235 152.406 165.615 154.589Z" fill="#A8CFF0"/>
<path d="M7.32053 93.1217C7.32053 93.1217 5.22507 94.0821 4.52658 95.2171C3.8281 96.4395 2.86768 106.742 2.86768 106.742C2.86768 106.742 8.71751 97.0507 9.15406 96.0903C9.59062 95.1298 7.32053 93.1217 7.32053 93.1217Z" fill="#D62D69"/>
<path d="M132.437 175.63L130.604 179.472C130.604 179.472 125.103 176.067 125.627 174.932C126.238 173.71 132.437 175.63 132.437 175.63Z" fill="#D1EBFF"/>
<path d="M129.992 178.337C129.992 179.298 130.691 179.647 131.477 179.21C132.35 178.686 132.961 177.551 132.961 176.591C132.961 175.63 132.262 175.281 131.477 175.718C130.691 176.154 129.992 177.377 129.992 178.337Z" fill="#F0F8FF"/>
<path d="M128.159 175.543L126.325 179.385C126.325 179.385 120.737 175.98 121.349 174.757C121.872 173.535 128.159 175.543 128.159 175.543Z" fill="#D1EBFF"/>
<path d="M125.714 178.25C125.714 179.21 126.413 179.647 127.286 179.123C128.159 178.599 128.857 177.464 128.857 176.504C128.857 175.543 128.159 175.107 127.286 175.63C126.413 176.067 125.714 177.289 125.714 178.25Z" fill="#F0F8FF"/>
<path d="M124.754 173.273L123.182 176.678C123.182 176.678 118.293 173.622 118.817 172.575C119.253 171.614 124.754 173.273 124.754 173.273Z" fill="#FFCC00"/>
<path d="M122.658 175.718C122.658 176.591 123.269 176.94 123.968 176.504C124.666 176.067 125.278 175.019 125.278 174.146C125.278 173.273 124.666 172.924 123.968 173.36C123.269 173.797 122.658 174.845 122.658 175.718Z" fill="#FFDE17"/>
<path d="M169.108 155.462L167.536 158.867C167.536 158.867 165.441 156.509 165.964 155.462C166.401 154.414 169.108 155.462 169.108 155.462Z" fill="#D1EBFF"/>
<path d="M166.925 157.906C166.925 158.779 167.536 159.129 168.235 158.692C169.02 158.256 169.544 157.208 169.544 156.335C169.544 155.462 168.933 155.112 168.235 155.549C167.536 155.986 166.925 157.033 166.925 157.906Z" fill="#F0F8FF"/>
<path d="M169.981 152.58L168.758 155.2C168.758 155.2 167.012 153.89 167.361 153.104C167.711 152.318 169.981 152.58 169.981 152.58Z" fill="#D1EBFF"/>
<path d="M168.322 154.414C168.322 155.112 168.758 155.374 169.37 155.025C169.981 154.676 170.417 153.89 170.417 153.192C170.417 152.493 169.981 152.231 169.37 152.58C168.758 152.93 168.322 153.803 168.322 154.414Z" fill="#F0F8FF"/>
<path d="M18.3217 106.655L87.7339 147.254L100.045 160.264L98.8223 161.486L88.1704 157.819L10.0272 112.417L18.3217 106.655Z" fill="#C566BC"/>
<path d="M8.8921 129.53C8.8921 129.181 8.8921 128.919 8.8921 128.57C8.8921 124.379 10.6383 121.672 13.4323 120.974C8.28092 118.005 4.09 115.561 1.20874 113.902C0.946808 114.862 0.859497 115.561 0.859497 115.823C0.859497 117.831 4.8758 126.3 8.8921 129.53Z" fill="url(#paint0_linear_155_2)"/>
<path d="M115.586 176.766C115.586 176.766 123.881 181.742 127.286 181.83C132.612 181.917 143.264 179.298 154.09 172.749C170.679 162.534 171.29 155.986 171.29 155.986C171.29 155.986 172.6 163.931 172.076 167.685C171.552 171.44 168.235 176.242 153.741 183.838C139.771 191.172 128.421 192.569 123.007 191.958C117.507 191.346 113.491 189.6 113.491 189.6L115.586 176.766Z" fill="black"/>
<path d="M127.897 182.965C133.223 183.052 143.875 180.433 154.701 173.884C167.449 166.026 170.767 160.351 171.552 158.081C171.378 156.771 171.29 155.986 171.29 155.986C171.29 155.986 170.679 162.534 154.09 172.749C143.351 179.385 132.699 182.004 127.286 181.83C123.881 181.742 115.586 176.766 115.586 176.766C115.586 176.766 121.872 182.877 127.897 182.965Z" fill="black"/>
<path d="M171.989 167.598C172.164 166.55 172.164 165.066 172.076 163.582C169.108 166.463 163.782 171.44 158.456 175.369C150.336 181.306 130.08 187.679 122.571 184.012C121.611 183.576 118.991 182.092 115.062 179.909L113.403 189.513C113.403 189.513 117.507 191.259 122.92 191.87C128.421 192.481 139.684 191.085 153.654 183.75C168.235 176.154 171.552 171.352 171.989 167.598Z" fill="url(#paint1_linear_155_2)"/>
<path d="M171.989 167.598C172.164 166.55 172.164 165.066 172.076 163.582C169.108 166.463 163.782 171.44 158.456 175.369C150.336 181.306 130.08 187.679 122.571 184.012C121.611 183.576 118.991 182.092 115.062 179.909L113.403 189.513C113.403 189.513 117.507 191.259 122.92 191.87C128.421 192.481 139.684 191.085 153.654 183.75C168.235 176.154 171.552 171.352 171.989 167.598Z" fill="black"/>
<path d="M78.8281 142.103L86.7734 146.731C86.7734 146.731 83.5429 138.611 80.5743 131.364L78.8281 142.103Z" fill="#001A46"/>
<path d="M38.7525 99.9319C28.6244 100.107 18.409 106.742 18.409 106.742L31.593 114.426C31.9422 112.767 32.2915 110.671 32.8153 108.576C33.5138 105.345 37.2682 101.416 38.7525 99.9319Z" fill="#001A46"/>
<path opacity="0.5" d="M85.2018 115.823C103.974 121.41 123.706 121.236 135.231 120.712C128.421 113.029 113.054 101.504 111.133 101.591C109.212 101.678 92.7106 110.235 85.2018 115.823Z" fill="#084C94"/>
<path d="M156.709 181.393C169.37 174.234 170.767 169.781 171.29 167.86C172.164 164.979 170.767 167.947 167.798 170.828C164.829 173.797 163.694 174.495 155.138 179.472C148.851 183.052 141.605 186.108 135.318 187.417C129.381 188.727 127.46 188.989 127.198 189.426C126.762 190.299 136.715 192.656 156.709 181.393Z" fill="#084C94"/>
<path d="M171.116 167.161C171.116 167.336 171.028 167.511 170.941 167.773C170.33 169.606 169.02 174.146 156.36 181.306C139.16 190.997 129.381 190.561 127.286 189.688C128.071 190.561 138.025 192.045 156.709 181.48C169.37 174.321 170.766 169.868 171.29 167.947C171.727 166.55 171.64 166.55 171.116 167.161Z" fill="#72B5E8"/>
<path d="M139.073 125.339C139.073 125.339 139.073 125.514 138.898 125.776C142.129 128.395 166.576 147.778 163.432 152.231C160.027 157.121 137.239 172.225 128.246 169.431C120.039 166.899 104.061 149.175 101.878 146.643C101.267 146.818 100.83 146.905 100.83 146.905C100.83 146.905 118.991 167.86 128.333 170.741C137.676 173.622 161.25 157.994 164.742 153.017C168.234 147.866 139.073 125.339 139.073 125.339Z" fill="black"/>
<path opacity="0.2" d="M132 172.487C132 172.487 129.643 179.385 121.261 176.242C117.769 174.932 117.507 170.217 117.507 170.217C117.507 170.217 122.134 172.313 125.714 172.837C129.206 173.448 132 172.487 132 172.487Z" fill="white"/>
<path d="M51.3252 126.038L58.4847 130.054L60.9294 109.1L57.0004 106.568L51.3252 126.038Z" fill="#001A46"/>
<path opacity="0.3" d="M86.1622 146.294C86.1622 146.294 77.3438 153.454 72.8037 151.096C68.2635 148.651 81.5348 143.325 81.5348 143.325L86.1622 146.294Z" fill="#161616"/>
<path d="M80.7487 139.396C79.4391 139.309 72.9781 139.833 71.9303 142.627C70.8826 145.421 86.9478 147.254 87.4717 146.643C87.9082 146.032 83.63 139.746 80.7487 139.396Z" fill="#001A46"/>
<path opacity="0.3" d="M80.4871 139.92C79.4393 139.833 74.3753 140.095 73.5895 142.103C72.8037 144.111 84.678 145.334 85.1146 144.984C85.4638 144.548 82.7572 140.182 80.4871 139.92Z" fill="black"/>
<path opacity="0.5" d="M21.7268 106.568C36.5697 110.497 51.5872 111.108 62.6756 110.846C57.0877 107.091 50.8014 103.686 45.7373 101.94C36.8316 98.7969 25.6558 104.385 21.7268 106.568Z" fill="#2672AB"/>
<path d="M155.487 161.311C155.487 162.359 154.09 164.105 152.257 165.153C150.51 166.201 149.026 166.114 149.026 165.066C149.026 164.018 150.423 162.272 152.257 161.224C154.003 160.176 155.487 160.264 155.487 161.311Z" fill="#D1EBFF"/>
<path d="M86.9481 147.08C86.8607 147.254 85.0272 151.969 84.5907 158.954C84.3287 164.193 84.2414 168.209 84.2414 169.955L54.5557 152.842C54.4684 150.66 54.2938 141.841 55.0796 132.237C55.9527 121.236 59.969 107.877 59.969 107.79L59.0086 107.528C59.0086 107.615 54.9923 121.061 54.1192 132.237C53.4207 141.143 53.508 149.437 53.5953 152.406L36.5697 142.452C36.0458 141.405 33.0772 134.944 29.8467 127.697C26.4416 120.101 29.2355 113.727 29.2355 113.64L28.2751 113.203C28.1878 113.465 25.2192 120.013 28.8863 128.133C32.3787 135.991 35.6092 142.976 35.6966 143.064L35.7839 143.238L85.2891 171.789V170.916C85.2891 170.828 85.2891 166.026 85.6384 159.129C85.9876 152.318 87.9085 147.691 87.9085 147.604L86.9481 147.08Z" fill="black"/>
<defs>
<linearGradient id="paint0_linear_155_2" x1="2.1166" y1="128.399" x2="7.19783" y2="117.559" gradientUnits="userSpaceOnUse">
<stop stop-color="#9C9C9C"/>
<stop offset="0.00471848" stop-color="#9D9D9D"/>
<stop offset="0.3149" stop-color="#C7C7C7"/>
<stop offset="0.595" stop-color="#E6E6E6"/>
<stop offset="0.8328" stop-color="#F8F8F8"/>
<stop offset="1" stop-color="white"/>
</linearGradient>
<linearGradient id="paint1_linear_155_2" x1="145.195" y1="192.986" x2="142.864" y2="177.316" gradientUnits="userSpaceOnUse">
<stop stop-color="#9C9C9C"/>
<stop offset="0.00471848" stop-color="#9D9D9D"/>
<stop offset="0.3149" stop-color="#C7C7C7"/>
<stop offset="0.595" stop-color="#E6E6E6"/>
<stop offset="0.8328" stop-color="#F8F8F8"/>
<stop offset="1" stop-color="white"/>
</linearGradient>
</defs>
</svg>
