<svg width="251" height="192" viewBox="0 0 251 192" fill="none" xmlns="http://www.w3.org/2000/svg">
<path opacity="0.2" d="M132.302 189.995L250.917 123.525L103.723 70.1528L1.70303e-05 128.199L132.302 189.995Z" fill="#BCBCBC"/>
<path d="M225.784 1.95207L250.751 123.388L132.634 191.985L107.749 69.6375L225.784 1.95207Z" fill="#C566BC"/>
<path opacity="0.2" d="M132.551 180.705L111.399 71.2964L223.461 7.01189L244.779 116.337L132.551 180.705Z" fill="#03336E"/>
<path d="M133.463 179.294L111.399 71.2964L223.461 7.01189L245.691 115.01L133.463 179.294Z" fill="#F0F8FF"/>
<path opacity="0.2" d="M135.205 180.539L111.399 71.2964L223.461 7.01189L247.433 116.171L135.205 180.539Z" fill="#03336E"/>
<path d="M135.785 178.797L111.399 71.2964L223.461 7.01189L247.931 114.512L135.785 178.797Z" fill="white"/>
<path d="M226.282 49.3982L183.48 73.9508L180.494 58.7713L222.964 34.3847L226.282 49.3982Z" fill="#F2B6EF"/>
<path d="M168.965 152.088L140.348 168.262L137.113 152.917L165.481 136.742L168.965 152.088Z" fill="#F2B6EF"/>
<path d="M140.016 169.009L240.714 111.277L223.13 33.7211L122.514 91.3698L122.597 91.7016L140.016 169.009ZM239.802 110.863L140.596 167.765L123.509 91.8675L222.549 35.0483L239.802 110.863Z" fill="#E6E6E6"/>
<path d="M123.53 90.9246L140.714 168.335L139.904 168.515L122.72 91.1044L123.53 90.9246Z" fill="#E6E6E6"/>
<path d="M137.831 82.7305L155.014 160.141L154.205 160.321L137.021 82.9103L137.831 82.7305Z" fill="#E6E6E6"/>
<path d="M151.968 74.5732L169.303 151.952L168.494 152.134L151.159 74.7545L151.968 74.5732Z" fill="#E6E6E6"/>
<path d="M166.274 66.384L183.6 143.763L182.791 143.944L165.464 66.5653L166.274 66.384Z" fill="#E6E6E6"/>
<path d="M180.486 58.208L197.82 135.587L197.011 135.768L179.676 58.3893L180.486 58.208Z" fill="#E6E6E6"/>
<path d="M194.789 50.021L212.116 127.4L211.306 127.581L193.98 50.2022L194.789 50.021Z" fill="#E6E6E6"/>
<path d="M209.082 41.8299L226.416 119.209L225.607 119.39L208.272 42.0113L209.082 41.8299Z" fill="#E6E6E6"/>
<path d="M223.299 33.6562L240.634 111.035L239.825 111.217L222.49 33.8375L223.299 33.6562Z" fill="#E6E6E6"/>
<path d="M240.048 110.741L240.461 111.461L140.512 168.769L140.1 168.049L240.048 110.741Z" fill="#E6E6E6"/>
<path d="M236.734 95.349L237.146 96.0686L137.198 153.376L136.785 152.657L236.734 95.349Z" fill="#E6E6E6"/>
<path d="M233.306 79.9258L233.719 80.6454L133.842 137.912L133.43 137.192L233.306 79.9258Z" fill="#E6E6E6"/>
<path d="M229.992 64.5344L230.404 65.254L130.528 122.52L130.115 121.801L229.992 64.5344Z" fill="#E6E6E6"/>
<path d="M226.605 49.1837L227.018 49.9032L127.141 107.17L126.729 106.45L226.605 49.1837Z" fill="#E6E6E6"/>
<path d="M223.25 33.7191L223.662 34.4387L123.858 91.6639L123.445 90.9443L223.25 33.7191Z" fill="#E6E6E6"/>
<path d="M107.749 69.6375L132.633 191.985L107.749 170.419L82.7819 163.203L107.749 69.6375Z" fill="#5B1F5E"/>
<path d="M83.1966 163.286L82.7819 163.203L107.749 69.6375L122.265 140.89L83.1966 163.286Z" fill="#6D236D"/>
<path d="M107.334 170.253L126.081 159.553L132.633 191.985L107.749 170.419L107.334 170.253Z" fill="#4B154C"/>
<path d="M107.749 69.6375L132.716 191.985L107.749 170.419L82.8648 163.203L107.749 69.6375ZM108.081 169.755L131.638 190.161L107.666 72.5406L83.6113 162.705L108.081 169.755Z" fill="#606060"/>
<path d="M117.62 73.3701L124.007 69.7204L124.919 74.0337L118.532 77.6834L117.62 73.3701Z" fill="#4B154C"/>
<path d="M133.546 64.2459L139.933 60.5962L140.845 64.9094L134.458 68.5591L133.546 64.2459Z" fill="#4B154C"/>
<path d="M149.472 55.1216L155.859 51.4719L156.688 55.7852L150.384 59.4349L149.472 55.1216Z" fill="#4B154C"/>
<path d="M165.398 45.9974L171.785 42.3477L172.614 46.6609L166.31 50.3106L165.398 45.9974Z" fill="#4B154C"/>
<path d="M181.324 36.8731L187.711 33.2234L188.54 37.5367L182.153 41.1864L181.324 36.8731Z" fill="#4B154C"/>
<path d="M197.25 27.7489L203.637 24.0992L204.466 28.4124L198.079 32.0621L197.25 27.7489Z" fill="#4B154C"/>
<path d="M213.176 18.6246L219.48 14.9749L220.392 19.2052L214.005 22.9379L213.176 18.6246Z" fill="#4B154C"/>
<path d="M109.325 56.2829C111.067 55.2875 113.307 55.4534 115.546 56.7806C119.777 59.269 123.177 64.9924 123.177 69.8863C123.177 72.0429 122.514 73.7849 121.27 74.8632C120.44 75.6097 119.445 76.0244 118.284 76.1074L117.703 73.3701C118.449 73.4531 119.03 73.2872 119.445 72.8724C120.108 72.2918 120.44 71.2135 120.44 69.8863C120.44 65.9878 117.62 61.0938 114.219 59.1031C112.809 58.2736 111.565 58.1077 110.652 58.6054C109.823 59.1031 109.325 60.2644 109.325 61.8404C109.325 63.6652 109.906 65.656 110.984 67.6467L108.579 68.9739C107.252 66.6513 106.588 64.08 106.588 61.8404C106.671 59.269 107.583 57.2782 109.325 56.2829Z" fill="#232323"/>
<path d="M125.251 47.1586C126.993 46.1633 129.233 46.3292 131.472 47.6563C135.703 50.1448 139.103 55.8682 139.103 60.7621C139.103 62.9187 138.44 64.6606 137.196 65.7389C136.366 66.4855 135.371 66.9002 134.21 66.9832L133.629 64.2459C134.375 64.3288 134.956 64.1629 135.371 63.7482C136.034 63.1676 136.366 62.0892 136.366 60.7621C136.366 56.8635 133.546 51.9696 130.145 49.9789C128.735 49.1494 127.491 48.9835 126.578 49.4812C125.749 49.9789 125.251 51.1401 125.251 52.7161C125.251 54.541 125.832 56.5317 126.91 58.5225L124.505 59.8496C123.177 57.5271 122.514 54.9557 122.514 52.7161C122.597 50.1448 123.509 48.154 125.251 47.1586Z" fill="#232323"/>
<path d="M141.177 38.0344C142.919 37.039 145.159 37.2049 147.398 38.532C151.629 41.0205 155.029 46.7439 155.029 51.6378C155.029 53.7944 154.366 55.5363 153.122 56.6147C152.292 57.3612 151.297 57.7759 150.135 57.8589L149.555 55.1216C150.301 55.2045 150.882 55.0387 151.297 54.6239C151.96 54.0433 152.292 52.965 152.292 51.6378C152.292 47.7392 149.472 42.8453 146.071 40.8546C144.661 40.0251 143.417 39.8592 142.504 40.3569C141.675 40.8546 141.177 42.0158 141.177 43.5919C141.177 45.4167 141.758 47.4075 142.836 49.3982L140.431 50.7254C139.103 48.4028 138.44 45.8314 138.44 43.5919C138.44 41.0205 139.435 39.0297 141.177 38.0344Z" fill="#232323"/>
<path d="M157.103 28.9101C158.845 27.9147 161.085 28.0806 163.324 29.4078C167.555 31.8962 170.955 37.6196 170.955 42.5135C170.955 44.6702 170.292 46.4121 169.048 47.4904C168.218 48.2369 167.223 48.6517 166.061 48.7346L165.481 45.9973C166.227 46.0803 166.808 45.9144 167.223 45.4996C167.886 44.919 168.218 43.8407 168.218 42.5135C168.218 38.615 165.398 33.7211 161.997 31.7303C160.587 30.9008 159.343 30.7349 158.43 31.2326C157.601 31.7303 157.103 32.8916 157.103 34.4676C157.103 36.2924 157.684 38.2832 158.762 40.2739L156.357 41.6011C155.029 39.2786 154.366 36.7072 154.366 34.4676C154.366 31.8962 155.361 29.9055 157.103 28.9101Z" fill="#232323"/>
<path d="M173.029 19.7858C174.771 18.7905 177.011 18.9564 179.25 20.2835C183.481 22.772 186.881 28.4954 186.881 33.3893C186.881 35.5459 186.218 37.2878 184.974 38.3662C184.144 39.1127 183.149 39.5274 181.987 39.6104L181.407 36.8731C182.153 36.956 182.734 36.7901 183.149 36.3754C183.812 35.7948 184.144 34.7165 184.144 33.3893C184.144 29.4907 181.324 24.5968 177.923 22.6061C176.513 21.7766 175.269 21.6107 174.356 22.1084C173.527 22.6061 173.029 23.7673 173.029 25.3434C173.029 27.1682 173.61 29.1589 174.688 31.1497L172.283 32.4769C170.955 30.1543 170.292 27.5829 170.292 25.3434C170.292 22.772 171.287 20.7812 173.029 19.7858Z" fill="#232323"/>
<path d="M188.955 10.6616C190.697 9.66621 192.937 9.8321 195.176 11.1593C199.407 13.6477 202.807 19.3711 202.807 24.265C202.807 26.4217 202.144 28.1636 200.9 29.2419C200.07 29.9884 199.075 30.4032 197.913 30.4861L197.333 27.7488C198.079 27.8318 198.66 27.6659 199.075 27.2511C199.738 26.6705 200.07 25.5922 200.07 24.265C200.07 20.3665 197.25 15.4726 193.849 13.4818C192.439 12.6523 191.195 12.4864 190.282 12.9841C189.453 13.4818 188.955 14.6431 188.955 16.2191C188.955 18.0439 189.536 20.0347 190.614 22.0254L188.209 23.3526C186.881 21.0301 186.218 18.4587 186.218 16.2191C186.218 13.6477 187.213 11.657 188.955 10.6616Z" fill="#232323"/>
<path d="M204.798 1.53733C206.54 0.541955 208.78 0.707851 211.019 2.03502C215.332 4.4405 218.65 10.2468 218.65 15.1408C218.65 17.2974 217.987 19.0393 216.743 20.1176C215.913 20.8642 214.918 21.2789 213.756 21.3618L213.176 18.6246C213.922 18.7075 214.503 18.5416 214.918 18.1269C215.581 17.5462 215.913 16.4679 215.913 15.1408C215.913 11.2422 213.093 6.3483 209.692 4.35755C208.365 3.52808 207.038 3.36218 206.208 3.85987C205.379 4.35755 204.881 5.51882 204.881 7.09483C204.881 8.91968 205.462 10.9104 206.54 12.9012L204.135 14.2283C202.807 11.9058 202.144 9.33442 202.144 7.09483C202.144 4.52345 203.139 2.5327 204.798 1.53733Z" fill="#232323"/>
<path d="M210.024 37.039L220.475 31.0668C221.222 30.652 222.134 31.0668 222.3 31.8962L222.715 34.0529L208.863 42.0159L208.531 40.274C208.282 38.9468 208.946 37.7026 210.024 37.039Z" fill="#C566BC"/>
<path d="M195.84 45.1679L206.291 39.1956C207.038 38.7809 207.95 39.1956 208.116 40.0251L208.531 42.1818L194.596 50.1448L194.264 48.4029C194.098 47.0757 194.678 45.8315 195.84 45.1679Z" fill="#C566BC"/>
<path d="M181.573 53.2968L192.024 47.3245C192.771 46.9098 193.683 47.3245 193.849 48.154L194.264 50.3107L180.411 58.2736L180.08 56.5317C179.831 55.2875 180.494 53.9604 181.573 53.2968Z" fill="#C566BC"/>
<path d="M167.389 61.4257L177.84 55.4534C178.587 55.0387 179.499 55.4534 179.665 56.2829L180.08 58.4395L166.227 66.4025L165.896 64.6606C165.647 63.4164 166.227 62.0892 167.389 61.4257Z" fill="#C566BC"/>
<path d="M153.205 69.5545L163.656 63.5823C164.403 63.1676 165.315 63.5823 165.481 64.4118L165.896 66.5684L152.043 74.5314L151.711 72.7895C151.463 71.5453 152.043 70.2181 153.205 69.5545Z" fill="#C566BC"/>
<path d="M138.938 77.6834L149.389 71.7112C150.135 71.2964 151.048 71.7112 151.214 72.5407L151.629 74.6973L137.776 82.6603L137.444 80.9184C137.196 79.6742 137.776 78.347 138.938 77.6834Z" fill="#C566BC"/>
<path d="M124.753 85.8123L135.205 79.8401C135.951 79.4253 136.864 79.8401 137.03 80.6695L137.444 82.8262L123.592 90.7892L123.26 89.0473C123.012 87.803 123.592 86.4759 124.753 85.8123Z" fill="#C566BC"/>
<path d="M140.845 99.4157L144.246 113.849L158.596 105.305L155.444 91.3698L140.845 99.4157Z" fill="#EB4680"/>
<path d="M155.361 90.6233L158.762 105.222V91.8675L155.361 90.6233Z" fill="#D62D69"/>
<path d="M144.246 114.015L158.845 105.388V91.9504L144.246 100.577V114.015Z" fill="#F76195"/>
<path d="M140.845 99.4157L144.246 114.015V100.577L140.845 99.4157Z" fill="#D62D69"/>
<path d="M158.845 91.9504L144.246 100.577L140.845 99.4157L144.246 100.328L158.845 91.9504Z" fill="#F799BA"/>
<path d="M150.882 107.379L152.624 106.383V100.743L154.366 99.7475L152.624 98.918L150.882 99.9134V107.379Z" fill="white"/>
<path d="M209.775 90.6233L214.586 87.886V86.0611L211.766 84.8169C211.683 84.8169 211.6 84.734 211.6 84.734C211.517 84.651 211.517 84.5681 211.517 84.4851C211.517 84.1533 211.683 83.9045 211.932 83.7386L214.586 82.1626L212.844 81.3331L211.766 81.9137C211.185 82.2455 210.77 82.7432 210.356 83.4068C209.941 84.0704 209.775 84.734 209.775 85.3976C209.775 85.7293 209.858 85.9782 209.941 86.227C210.024 86.4759 210.19 86.6418 210.439 86.7247L212.098 87.3883L209.775 88.7155V90.6233V90.6233Z" fill="white"/>
<path d="M184.559 119.987C184.559 120.65 184.725 121.065 185.057 121.314C185.388 121.563 185.803 121.563 186.384 121.231L189.038 119.738V117.913L186.715 119.24C186.467 119.406 186.301 119.323 186.301 118.991C186.301 118.66 186.467 118.411 186.715 118.245L189.038 116.918V115.093L186.715 116.42C186.467 116.586 186.301 116.503 186.301 116.171C186.301 115.839 186.467 115.591 186.715 115.425L189.038 114.097L187.296 113.268L186.384 113.766C185.803 114.097 185.388 114.595 185.057 115.259C184.725 115.839 184.559 116.503 184.559 117.167C184.559 117.83 184.808 118.162 185.305 118.162C185.057 118.411 184.891 118.66 184.725 119.074C184.642 119.323 184.559 119.655 184.559 119.987Z" fill="white"/>
</svg>
